<?xml version="1.0" encoding="UTF-8"?>
<svg id="Logo" xmlns="http://www.w3.org/2000/svg" xmlns:xlink="http://www.w3.org/1999/xlink" viewBox="0 0 500 500">
  <defs>
    <style>
      .cls-2 {
        stroke-width: 0px;
        fill: #fff;
      }
    </style>
  </defs>
    <g>
      <g>
        <path class="cls-2" d="m250,375c-46.88,0-87.7-25.78-108.98-63.87L33.59,125C12.3,161.72.2,204.49.2,250c0,129.3,98.05,235.55,223.83,248.63l77.73-134.77c-16.02,7.23-33.4,11.13-51.76,11.13Z"/>
        <path class="cls-2" d="m250,125h216.6C423.44,50.2,342.58,0,250,0,166.99,0,93.36,40.62,47.85,102.93l77.73,134.77c6.25-63.28,59.57-112.7,124.41-112.7Z"/>
        <path class="cls-2" d="m375,250c0,22.85-6.05,44.14-16.8,62.5h0l-108.2,187.5c138.09,0,250-111.91,250-250,0-36.13-7.62-70.51-21.48-101.56h-155.66c31.45,22.66,52.15,59.77,52.15,101.56Z"/>
      </g>
      <circle class="cls-2" cx="250" cy="250" r="101.56"/>
    </g>
</svg>